<?xml version="1.0" encoding="utf-8"?>
<!-- Generator: Adobe Illustrator 19.0.0, SVG Export Plug-In . SVG Version: 6.00 Build 0)  -->
<svg version="1.1" xmlns="http://www.w3.org/2000/svg" xmlns:xlink="http://www.w3.org/1999/xlink" x="0px" y="0px"
	 viewBox="0 0 479.7 187" style="enable-background:new 0 0 479.7 187;" xml:space="preserve">
<style type="text/css">
	.st0{fill:#86ED73;}
	.st1{fill:#451392;}
	.st2{fill:#10E85E;}
</style>
<g id="Capa_1">
</g>
<g id="Capa_2">
</g>
<g id="Capa_3">
	
		<ellipse id="XMLID_24_" transform="matrix(0.9798 0.2002 -0.2002 0.9798 14.5022 -73.1461)" class="st0" cx="369" cy="35.1" rx="3.7" ry="5"/>
	<g id="XMLID_59_">
		<g id="XMLID_63_">
			<g id="XMLID_64_">
				<path id="XMLID_68_" class="st1" d="M64.9,58.7c-1.2,0-2.4,0-3.6,0.1C24.3,61.4,7.7,90.2,7.8,115.8c0.1,22.6,13,49,48.7,49
					c1.7,0,3.5-0.1,5.3-0.2c6.2-0.4,12.3-1.8,18-4.1l2.5-1V157v-18.6v-7l-5.9,3.7c-4.6,2.9-10.1,4.8-15.1,5.1c-1,0.1-2,0.1-3,0.1
					c-23.2,0-25.2-19.8-25.2-25.9c-0.1-14.4,8.7-29.6,28.8-31c0.7-0.1,1.4-0.1,2.2-0.1c4.5,0,8.9,1,12.7,3l5.6,2.9v-6.3V64.6v-2.9
					l-2.7-0.8C74.8,59.5,69.9,58.7,64.9,58.7z"/>
				<path id="XMLID_65_" class="st1" d="M462.5,39.1c-6.4-6.7-15.3-10.3-25.9-10.3c-1.1,0-2.3,0-3.4,0.1c-7.4,0.5-14.8,1.1-22.2,1.6
					c-7.4,0.5-14.8,1.1-22.1,1.6l-3.6,0.3V36v94v4.2l4.1-0.3l17.7-1.2l3.6-0.3v-3.6v-24.1l23-1.6c25.9-1.8,38.7-21.9,38.1-40.9
					C471.5,53.3,468.2,45.1,462.5,39.1z M446.6,64.7c0.2,6.5-3.9,13.8-13.4,14.5l-22.5,1.6V55.2l23-1.6c0.4,0,0.9,0,1.3,0
					C443.3,53.5,446.4,59.6,446.6,64.7z"/>
			</g>
		</g>
		<path id="XMLID_60_" class="st1" d="M188.7,152.8l-5.6-5.9v0l-1.1-1.1L157.7,120c13.3-5.8,20.7-17.5,20.7-32.9
			c0-19.3-14.3-32.8-34.7-32.8c-1.1,0-2.2,0-3.3,0.1c-7.5,0.5-14.9,1-22.4,1.5c-7.5,0.5-14.9,1-22.4,1.5l-3.6,0.3v3.6v94.2v4.2
			l4.1-0.3l17.7-1.2l3.6-0.3v-3.6v-27.8l11.6-0.8l26.1,28.2l1.3,1.4l1.8-0.1l21.1-1.5l3.6-0.3v0L188.7,152.8z M140.4,101l-22.9,1.6
			V80.3l23.4-1.6c0.5,0,0.9,0,1.4,0h0c3.6,0,6.3,1,8.1,3c1.6,1.8,2.5,4.3,2.5,7.1C152.9,94.2,149.6,100.4,140.4,101z"/>
	</g>
	<g id="XMLID_80_">
		<path id="XMLID_26_" class="st2" d="M372.9,47.6c0.2-0.9,0.3-1.8,0.3-2.6c-2.3,2.1-5.3,3.1-8.3,2.5c-5.3-1.1-8.7-7-7.4-13.2
			c1.3-6.2,6.6-10.3,12-9.2c1.8,0.4,3.3,1.3,4.6,2.5c-1.4-4.4-5.2-7.8-10.3-8.5c-4.6-0.6-9.1,1.1-12.2,4.3
			c-4.2-1.5-8.8-2.6-13.7-3.3c-5.1-0.7-10.1-0.8-14.7-0.4c-1.2-4.7-5.2-8.3-10.4-9c-1.7-0.2-3.3-0.1-4.9,0.2c5.3,1.1,8.6,7,7.4,13.2
			c-1.3,6.2-6.6,10.3-12,9.2c-2.4-0.5-4.4-1.9-5.7-3.9c0,0.1,0.1,0.2,0.1,0.4c-2,2.2-3.4,4.6-3.9,7.3c-0.7,3.2,0,5.9,1.8,8.3
			C289.2,49.1,284,54,280,59.6c-0.4-0.4-0.7-0.9-1.1-1.3c-8.6-8.7-20.3-13.2-33.9-13.2c-1.5,0-3,0.1-4.5,0.2
			c-13.8,1-24.7,5.9-32.9,13c0.1-0.9-0.3-1.9-1.3-2.9c-3.4-3.2-6.4,3.3-6.9,4.5c-0.1,0.1-0.1,0.2-0.1,0.4
			c-0.4,1.6-3.6,13.9-6.5,13.4c-3.2-0.5-4.8-5.1-5.1-8.4c-0.3-2.9-1.1-4.6-3.1-5c-0.6-0.1-1.2,0-1.8,0.3c-1.1,0.6-2.7,2.1-0.6,5.5
			c3,4.8,4,5.7,4.3,13.3c0.3,7.3-1.9,14,0.2,18c0.6,1.2,1.3,2.2,1.9,2.7c0,0.7,0,1.5,0,2.2c0,24.5,14.7,49.2,47.7,49.2
			c1.6,0,3.2-0.1,4.8-0.2c1.8-0.1,3.5-0.3,5.1-0.6c11.6,6.2,21.3,6.9,23.5,7.1c3.6,0.4,6.4,3.2,3.3,7c-3.1,3.8-1.6,7.8-1.6,7.8
			c2.8,6.4,10.6,3.5,12.9,2.5l0,0c3.4-1.3,8.6-2.6,10.5-2.7c7-0.5,7.9,0.3,12.6,2.5c3.3,1.5,4.5,0,4.9-1.1c0.2-0.5,0.2-1.1,0.1-1.6
			c-0.6-1.9-2.3-2.5-5-2.4c-3,0.1-9.2-0.9-9-3.9c0.2-2.7,9.9-7.5,11.4-8c0.1,0,0.2-0.1,0.3-0.2c1.1-0.6,6.7-4,3.4-6.8
			c-2.9-2.5-5,0.3-5.8,1.6c-0.4,0.6-0.8,1.2-1.3,1.8c-2.1,2.4-7,7.3-11.2,5.8c-5-1.8-2.7-8-2.4-9.3c0-0.1,0.1-0.2,0.1-0.3
			c0.3-0.9,1.9-5.7-1.9-6.2c-3.7-0.5-3.6,3.4-3.6,4.3c0,0.1,0,0.2,0.1,0.4c2,8.5-0.3,12-2.6,13.5c-5.8,3.2,3.4-9.8,1-17.5
			c-1.7-5.5-6-6.1-8.9-9.3c1.7-1.7,3.3-3.6,4.7-5.5c7.8,8.4,19.3,13.9,34.9,13.9c1.6,0,3.2-0.1,4.8-0.2c2.8-0.2,5.5-0.6,8-1.1
			c0,0,0,0,0,0c-1.2-1-1-2.8,0.1-3.9c0.8-0.7,2.2-1.4,4.7-1.7c5.6-0.6,12.7-5,13.4-7.5c0.6-2.4,0.5-7.8-10.4-10.7
			c-0.1,0-0.2-0.1-0.3-0.1c-0.6-0.3-2.4-1.2-2.8-2.8c-3.6,2-7.9,3.4-13.1,3.8c-0.9,0.1-1.8,0.1-2.7,0.1c-21.7,0-23.9-20-24.1-26.2
			c-0.1-4.7,0.7-9.6,2.5-14c-0.4-0.1-0.7-0.2-0.7-0.2s-10.1-1.3-13.1,3.8c-2.9,5.1,3.9,9.2,5.1,9.8c0.1,0.1,0.2,0.1,0.3,0.2
			c0.9,0.3,5.5,2.3,3.4,5.5c-2,3.1-4.9,0.5-5.6-0.1c-0.1-0.1-0.2-0.2-0.2-0.3c-6.6-9.2-11.6-7.4-13.7-6c-2.1,1.4-3.7,9.7-2.3,15.1
			c0.6,2.4,0.4,4,0.1,5c-0.5,1.4-2.1,2.2-3.5,1.5c-0.8-0.4-1.6-1.4-1.5-3.5c-3.7,8.6-11.3,15.7-24.3,16.6c-0.9,0.1-1.8,0.1-2.7,0.1
			c-21.7,0-23.9-20-24.1-26.2c-0.4-14.4,8-30.6,27.3-31.9c0.8-0.1,1.7-0.1,2.5-0.1c6.9,0,12.6,2.1,16.7,6.4c2.1,2.2,3.8,4.9,5.1,7.9
			c2.3-1.8,4.7-3,7.5-5.7c5-4.9,4.9-6.2,6.4-11.2c1-3.5,3-3.4,4.1-3c0.5,0.2,1,0.5,1.2,1c1,1.7,0.4,3.3-1.5,5.3
			c-2.1,2.2-4.2,6.2-2.5,8.7c1.5,2.3,10.2-2.7,11.6-3.5c0.1-0.1,1.5-0.8,1.6-0.8c1.8-0.7,4.1-1,6-0.4c4.4-6.5,11.5-11.3,21.7-12
			c0.8-0.1,1.7-0.1,2.5-0.1c6.9,0,12.6,2.1,16.7,6.4c4.9,4.9,7.6,12.7,7.4,21.2c-0.1,8.5-2.9,17.5-9.6,23.5c1.2,0.6,2.3,1.7,2.6,2.1
			c0.1,0.1,0.2,0.2,0.3,0.3c1,0.9,6.9,5.4,11,1.3c4.6-4.5-1-13.6-1-13.6s-3.5-4.6,1-6.4c3.4-1.4,4.2,3.1,4.3,5.3c0,0.6,0,1.2,0,1.9
			c-0.3,2.8-1.4,12.7,1.1,13.2c2.9,0.7,5.9-2.7,7.3-5.4c1.2-2.4,2.5-3.6,4.5-3.2c0.1,0,0.2,0,0.3,0.1c2.3-6.5,3.5-13.4,3.6-20.3
			c0.1-11.5-3.1-22.4-9.1-30.9C368.9,55.1,372,52.1,372.9,47.6z"/>
		
			<ellipse id="XMLID_25_" transform="matrix(0.9798 0.2002 -0.2002 0.9798 10.2481 -60.4058)" class="st2" cx="303.9" cy="20.5" rx="3.7" ry="5"/>
		<path id="XMLID_36_" class="st2" d="M324.7,37.6c-1.5,0-3,0.1-4.5,0.2c-18.9,1.3-32.4,10-40.8,21.7c-0.4-0.4-0.7-0.9-1.1-1.3
			C269.7,49.6,258,45,244.4,45c-1.5,0-3,0.1-4.5,0.2c-35.7,2.5-51.9,31.2-51.9,56.8c0,24.4,14.7,49.1,47.6,49.1
			c1.6,0,3.2-0.1,4.8-0.2c18.8-1.3,32.2-9.7,40.6-21.1c7.8,8.4,19.3,13.9,34.9,13.9c1.6,0,3.2-0.1,4.8-0.2
			c35.4-2.5,51.5-29.8,51.8-55.8c0.2-14.3-4.9-27.7-13.9-36.9C350,42.2,338.3,37.6,324.7,37.6z M267,96.5
			c-0.2,13.8-7.5,29.1-27.1,30.4c-0.9,0.1-1.8,0.1-2.7,0.1c-21.7,0-23.9-20-24.1-26.1c-0.4-14.4,8-30.5,27.3-31.9
			c0.8-0.1,1.7-0.1,2.5-0.1c6.9,0,12.5,2.1,16.7,6.4C264.5,80.2,267.2,87.9,267,96.5z M347.4,89.1c-0.2,13.8-7.5,29.1-27.1,30.4
			c-0.9,0.1-1.8,0.1-2.7,0.1c-21.7,0-23.9-20-24.1-26.1c-0.4-14.4,8-30.5,27.3-31.9c0.8-0.1,1.7-0.1,2.5-0.1
			c6.9,0,12.5,2.1,16.7,6.4C344.8,72.8,347.5,80.6,347.4,89.1z"/>
	</g>
</g>
</svg>
